<?xml version="1.0" encoding="utf-8"?>
<!-- Generator: Adobe Illustrator 27.3.1, SVG Export Plug-In . SVG Version: 6.00 Build 0)  -->
<svg version="1.1" id="Layer_1" xmlns="http://www.w3.org/2000/svg" xmlns:xlink="http://www.w3.org/1999/xlink" x="0px" y="0px"
	 viewBox="0 0 179 58" style="enable-background:new 0 0 179 58;" xml:space="preserve">
<style type="text/css">
	.st0{fill:#FFFFFF;}
	.st1{fill:#E83235;}
</style>
<g>
	<path class="st0" d="M55.4,13.1l-2.48,14.75h-2.81l-1.35-9.71l-1.35,9.71h-2.81L42.13,13.1h2.56l1.39,9.97l1.39-9.97h2.59
		l1.39,9.97l1.39-9.97H55.4z"/>
	<path class="st0" d="M57.39,13.1h2.54v14.75h-2.54V13.1z"/>
	<path class="st0" d="M62.73,13.1h2.81l3.24,9.9v-9.9h2.5v14.75h-2.69l-3.35-9.44v9.44h-2.5V13.1H62.73z"/>
	<path class="st0" d="M74.05,13.1h2.81L80.1,23v-9.9h2.5v14.75h-2.69l-3.35-9.44v9.44h-2.51V13.1z"/>
	<path class="st0" d="M85.39,13.1h7.23v2.11h-4.68v4.11h3.71v2.11h-3.71v4.32h4.68v2.11h-7.23C85.39,27.86,85.39,13.1,85.39,13.1z"
		/>
	<path class="st0" d="M100.45,27.85l-1.84-6.08h-1.32v6.08h-2.54V13.1h3.99c2.43,0,3.99,1.39,3.99,3.51v1.63
		c0,1.37-0.64,2.42-1.76,3.02l2.14,6.59C103.1,27.85,100.45,27.85,100.45,27.85z M97.28,19.66h1.32c0.98,0,1.56-0.51,1.56-1.37v-1.7
		c0-0.87-0.58-1.37-1.56-1.37h-1.32V19.66z"/>
	<path class="st0" d="M119.52,24.56v-8.17c0-2.06,1.61-3.5,3.99-3.5c2.38,0,3.99,1.43,3.99,3.5v1.73h-2.5v-1.73
		c0-0.87-0.59-1.39-1.46-1.39s-1.46,0.52-1.46,1.39v8.17c0,0.87,0.59,1.39,1.46,1.39s1.46-0.52,1.46-1.39v-2.11h2.5v2.11
		c0,2.06-1.61,3.5-3.99,3.5C121.13,28.06,119.52,26.62,119.52,24.56z"/>
	<path class="st0" d="M129.82,27.85V13.1h2.54v6.22h3.02V13.1h2.54v14.75h-2.54v-6.42h-3.02v6.42
		C132.35,27.85,129.82,27.85,129.82,27.85z"/>
	<path class="st0" d="M145.73,24.59H143l-0.56,3.27h-2.55l2.78-14.75h3.4l2.78,14.75h-2.59L145.73,24.59z M145.39,22.44l-1.03-6.17
		l-1.03,6.17H145.39z"/>
	<path class="st0" d="M150.84,13.1h3.99c2.43,0,3.99,1.39,3.99,3.51v1.73c0,2.12-1.56,3.51-3.99,3.51h-1.44v5.98h-2.54V13.1H150.84z
		 M154.71,19.76c0.98,0,1.56-0.51,1.56-1.37v-1.81c0-0.87-0.58-1.37-1.56-1.37h-1.32v4.56h1.32V19.76z"/>
	<path class="st0" d="M160.94,13.1h7.23v2.11h-4.68v4.11h3.71v2.11h-3.71v4.32h4.68v2.11h-7.23V13.1z"/>
	<path class="st0" d="M170.31,13.1h2.54v12.64h4.53v2.11h-7.08V13.1H170.31z"/>
	<path class="st0" d="M44.78,32.48h2.23v12.93h-2.23V32.48z"/>
	<path class="st0" d="M49.45,32.48h2.46l2.83,8.68v-8.68h2.19v12.93h-2.35l-2.95-8.28v8.28h-2.19V32.48z"/>
	<path class="st0" d="M58.67,32.48h7.12v1.85h-2.44v11.09h-2.23V34.33h-2.44v-1.85H58.67z"/>
	<path class="st0" d="M68.67,34.42h-0.8v-1.94h2.23v1.75l-1.18,2.12h-1.05L68.67,34.42z"/>
	<path class="st0" d="M72.69,32.48h2.23v11.09h3.97v1.85h-6.2V32.48z"/>
	<path class="st0" d="M84.83,32.48h2.23v12.93h-2.23V32.48z"/>
	<path class="st0" d="M89.51,32.48h2.46l2.83,8.68v-8.68H97v12.93h-2.35l-2.95-8.28v8.28h-2.19V32.48z"/>
	<path class="st0" d="M99.43,32.48h3.49c2.13,0,3.49,1.22,3.49,3.08v6.77c0,1.86-1.36,3.08-3.49,3.08h-3.49V32.48z M102.83,43.57
		c0.87,0,1.36-0.45,1.36-1.2v-6.83c0-0.76-0.51-1.2-1.36-1.2h-1.16v9.24C101.66,43.57,102.83,43.57,102.83,43.57z"/>
	<path class="st0" d="M108.65,32.48h2.23v12.93h-2.23V32.48z"/>
	<path class="st0" d="M117.73,42.55h-2.4l-0.48,2.87h-2.23l2.44-12.93h2.98l2.44,12.93h-2.28L117.73,42.55z M117.43,40.67l-0.9-5.41
		l-0.9,5.41H117.43z"/>
	<path class="st0" d="M122.21,32.48h2.46l2.83,8.68v-8.68h2.19v12.93h-2.35l-2.95-8.28v8.28h-2.19V32.48z"/>
	<path class="st0" d="M136.54,42.55h-2.4l-0.48,2.87h-2.23l2.44-12.93h2.98l2.44,12.93h-2.28L136.54,42.55z M136.24,40.67l-0.9-5.41
		l-0.9,5.41H136.24z"/>
	<path class="st0" d="M141.02,32.48h3.49c2.13,0,3.49,1.22,3.49,3.08v1.51c0,1.86-1.36,3.08-3.49,3.08h-1.26v5.25h-2.23V32.48z
		 M144.41,38.32c0.87,0,1.36-0.45,1.36-1.2v-1.59c0-0.76-0.51-1.2-1.36-1.2h-1.16v3.99h1.16V38.32z"/>
	<path class="st0" d="M149.69,42.48v-7.05c0-1.86,1.44-3.12,3.58-3.12c2.14,0,3.58,1.25,3.58,3.12v7.05c0,1.86-1.44,3.12-3.58,3.12
		C151.13,45.59,149.69,44.34,149.69,42.48z M154.62,42.48v-7.05c0-0.81-0.52-1.28-1.35-1.28c-0.83,0-1.35,0.46-1.35,1.28v7.05
		c0,0.81,0.52,1.28,1.35,1.28C154.1,43.76,154.62,43.29,154.62,42.48z"/>
	<path class="st0" d="M159.1,32.48h2.23v11.09h3.97v1.85h-6.2L159.1,32.48L159.1,32.48z"/>
	<path class="st0" d="M167.03,32.48h2.23v12.93h-2.23V32.48z"/>
	<path class="st0" d="M171.2,42.42v-0.46l2.14-0.2v0.48c0,0.94,0.54,1.51,1.44,1.51s1.44-0.48,1.44-1.24c0-0.81-0.38-1.4-2.04-2.79
		c-2.2-1.83-2.83-2.83-2.83-4.25c0-1.92,1.26-3.18,3.39-3.18c2.13,0,3.39,1.25,3.39,3.19v0.34l-2.14,0.2v-0.37
		c0-0.99-0.45-1.51-1.23-1.51s-1.23,0.42-1.23,1.24c0,0.81,0.46,1.4,2.04,2.79c2.14,1.89,2.83,2.83,2.83,4.25
		c0,1.85-1.47,3.18-3.6,3.18C172.68,45.59,171.2,44.27,171.2,42.42z"/>
	<path class="st0" d="M103.98,24.41v-0.52l2.38-0.22v0.53c0,1.06,0.61,1.69,1.58,1.69c0.98,0,1.58-0.53,1.58-1.38
		c0-0.91-0.42-1.56-2.26-3.12c-2.45-2.05-3.14-3.15-3.14-4.74c0-2.15,1.4-3.55,3.75-3.55s3.75,1.4,3.75,3.58v0.37l-2.38,0.22v-0.41
		c0-1.12-0.5-1.69-1.35-1.69c-0.87,0-1.35,0.47-1.35,1.38c0,0.91,0.51,1.56,2.26,3.12c2.38,2.11,3.14,3.15,3.14,4.74
		c0,2.06-1.63,3.55-3.99,3.55C105.61,27.96,103.98,26.47,103.98,24.41z"/>
</g>
<path class="st1" d="M8.44,23.17c-0.16-1.52-0.31-2.97-0.48-4.54c0.37,0.1,0.63,0.16,0.88,0.24c0.42,0.14,0.84,0.3,1.26,0.44
	c0.55,0.18,0.65,0.13,0.76-0.47c0.2-1.14,0.37-2.27,0.57-3.41c0.22-1.21,0.67-2.28,1.61-3.09c0.07-0.06,0.15-0.13,0.24-0.17
	c0.51-0.29,0.56-0.27,0.73,0.3c0.26,0.85,0.8,1.49,1.47,1.99c0.68,0.51,1.41,0.97,2.14,1.42c0.39,0.25,0.47,0.2,0.62-0.24
	c0.5-1.62,1.08-3.21,1.87-4.71c0.56-1.07,1.2-2.08,2.18-2.8c0.07-0.05,0.14-0.1,0.21-0.14c0.5-0.28,0.6-0.21,0.66,0.37
	c0.12,1.24,0.62,2.36,1.17,3.45c0.67,1.36,1.63,2.5,2.64,3.59c0.16,0.18,0.48,0.28,0.73,0.27c1.32-0.04,2.07-0.95,2.69-2.03
	c0.22-0.38,0.44-0.76,0.66-1.14c0.17-0.3,0.35-0.39,0.67-0.15c1.27,0.95,1.89,2.29,1.98,3.87c0.05,0.97-0.07,1.96-0.13,2.93
	c-0.03,0.61-0.09,1.21-0.12,1.81c-0.01,0.15,0.06,0.3,0.12,0.56c0.45-0.42,0.82-0.76,1.19-1.12c0.05,0.03,0.11,0.05,0.17,0.08
	c-0.03,0.44-0.03,0.9-0.09,1.34c-0.05,0.41-0.2,0.81-0.27,1.22c-0.07,0.41-0.24,0.52-0.63,0.37c-1.03-0.38-2.07-0.73-3.11-1.08
	c-4.55-1.51-9.19-1.89-13.91-1.19c-2.37,0.35-4.7,0.95-7,1.63C9.44,22.92,8.97,23.04,8.44,23.17z"/>
<path class="st0" d="M7.05,32.36c0.01-1.43,0.26-2.82,0.79-4.13c0.39-0.95,0.84-1.88,1.3-2.81c0.24-0.5,0.31-0.49,0.81-0.28
	c0.85,0.35,1.68,0.77,2.56,1.02c2.41,0.69,4.77,0.35,7.03-0.64c0.9-0.39,1.61-0.37,2.5,0c2.15,0.9,4.39,1.29,6.72,0.83
	c1.19-0.23,2.27-0.73,3.31-1.35c0.44-0.26,0.45-0.25,0.66,0.2c0.75,1.67,1.32,3.4,1.55,5.23c0.4,3.35-0.58,6.24-2.71,8.73
	c-1.86,2.18-4.16,3.8-6.59,5.2c-1.14,0.66-2.32,1.23-3.49,1.82c-0.17,0.08-0.43,0.12-0.59,0.05c-2.49-1.09-5.02-2.09-7.28-3.66
	c-2.01-1.39-3.88-2.94-5.17-5.11C7.53,35.9,7.05,34.2,7.05,32.36z M32.79,32.44c-0.02-2.14-0.32-3.61-0.81-5.05
	c-0.14-0.4-0.3-0.47-0.71-0.34c-1.03,0.33-2.06,0.68-3.12,0.85c-2.31,0.35-4.52-0.17-6.67-1.02c-0.47-0.18-0.87-0.19-1.34,0.01
	c-2.35,0.95-4.77,1.38-7.29,0.85c-0.79-0.17-1.57-0.47-2.35-0.71c-0.2-0.06-0.38-0.17-0.52,0.13c-0.87,1.8-1.44,3.69-1.35,5.73
	c0.11,2.35,1.14,4.25,2.71,5.86c2.71,2.77,6.02,4.47,9.51,5.88c0.16,0.06,0.4,0.04,0.55-0.04c1.11-0.58,2.23-1.16,3.32-1.79
	c1.85-1.09,3.61-2.31,5.1-3.91C31.63,36.92,32.85,34.67,32.79,32.44z"/>
<path class="st0" d="M13.26,25.47c0.25-0.14,0.52-0.27,0.76-0.43c1.89-1.25,3.97-1.86,6.18-2.05c0.05-0.01,0.12,0.01,0.16-0.01
	c0.09-0.06,0.17-0.15,0.26-0.22c-0.09-0.06-0.19-0.18-0.28-0.18c-0.54,0.03-1.08,0.08-1.61,0.13c-2.14,0.23-4.2,0.74-6.18,1.62
	c-0.28,0.13-0.54,0.3-0.83,0.4c-0.24,0.07-0.5,0.05-0.76,0.06c-0.01-0.06-0.03-0.13-0.05-0.2c0.43-0.22,0.85-0.44,1.27-0.66
	c-0.01-0.04-0.03-0.07-0.04-0.1c-0.46,0.18-0.92,0.37-1.38,0.54c-0.35,0.13-0.64,0.04-0.9-0.32c3.47-1.6,7.08-2.29,10.8-2.33
	c3.95-0.04,7.84,0.45,11.6,2.07c-0.28,0.31-0.51,0.51-0.87,0.37c-0.28-0.11-0.56-0.2-0.89-0.23c0.25,0.14,0.5,0.28,0.83,0.46
	c-2.14,1.34-4.36,1.49-6.67,1.05c0.05-0.01,0.11-0.02,0.16-0.04c0.12-0.05,0.33-0.11,0.33-0.16c0-0.17-0.03-0.42-0.14-0.5
	c-0.89-0.6-1.77-1.23-2.88-1.31c-0.87-0.06-0.87-0.09-1.05,0.72c-0.28,0.03-0.47-0.04-0.47-0.41c0-0.08-0.2-0.25-0.28-0.23
	c-1.29,0.2-2.48,0.73-3.4,1.66c-0.31,0.31-0.59,0.46-0.94,0.47c-0.92,0.02-1.84-0.01-2.77-0.03C13.24,25.56,13.26,25.51,13.26,25.47
	z M28.21,23.67c0.01-0.02,0.01-0.04,0.02-0.06c-0.12-0.05-0.24-0.13-0.37-0.15c-1.48-0.28-2.96-0.56-4.45-0.81
	c-0.6-0.1-1.21-0.09-1.82-0.11c-0.13,0-0.26,0.11-0.39,0.18c0.13,0.06,0.26,0.18,0.39,0.19c1.45,0.08,2.88,0.32,4.29,0.71
	C26.61,23.83,27.43,23.67,28.21,23.67z M17.33,24.1c-0.96,0.26-1.89,0.56-2.76,1.2C15.92,25.8,16.53,24.73,17.33,24.1z"/>
<path class="st0" d="M23.17,42.72c-0.18,0.05-0.35,0.13-0.53,0.15c-0.29,0.03-0.58,0.05-0.87,0.02c-0.41-0.04-0.68,0.04-0.62,0.56
	c0.01,0.09-0.13,0.2-0.2,0.3c-0.1-0.09-0.3-0.19-0.3-0.28c0.02-0.54-0.28-0.59-0.68-0.56c-0.28,0.02-0.56,0.01-0.83-0.01
	c-0.19-0.02-0.37-0.11-0.56-0.17c0.01-0.05,0.01-0.1,0.02-0.16c0.45,0,0.9,0,1.34,0c0.83-0.01,0.69,0.04,0.71-0.71
	c0.01-0.64-0.01-1.27,0.01-1.91c0.01-0.3-0.08-0.44-0.4-0.44c-1.29,0.01-2.58-0.01-3.87,0.02c-0.18,0.01-0.42,0.14-0.54,0.3
	c-0.59,0.77-0.95,0.85-1.71,0.25c-0.5-0.39-0.95-0.81-1.33-1.37c-0.75-1.13-1.73-2.1-2.54-3.19c-0.3-0.4-0.43-0.96-0.55-1.47
	c-0.43-1.95-0.07-3.81,0.72-5.59c0.14-0.3,0.33-0.37,0.64-0.14c-0.09,0.19-0.19,0.38-0.31,0.61c0.14,0.02,0.22,0.05,0.31,0.04
	c0.91-0.04,1.81-0.1,2.72-0.12c0.27-0.01,0.55,0.1,0.82,0.1c1.51,0.02,3.02,0.05,4.53,0.01c0.45-0.01,0.9-0.24,1.33-0.42
	c0.08-0.03,0.1-0.27,0.12-0.41c0.02-0.2-0.03-0.44,0.26-0.44c0.26,0,0.29,0.2,0.29,0.42c0.01,0.57,0.08,0.7,0.62,0.77
	c0.76,0.1,1.53,0.28,2.28-0.12c0.11-0.06,0.27-0.04,0.41-0.02c2.13,0.35,4.22,0.26,6.28-0.47c0.33-0.12,0.5-0.06,0.6,0.3
	c0.66,2.24,0.71,4.46-0.15,6.65c-0.07,0.19-0.19,0.37-0.33,0.64c-0.21-0.36-0.37-0.64-0.57-0.98c-0.03,0.47-0.07,0.89-0.08,1.31
	c-0.01,0.6-0.14,1.14-0.68,1.6c0.08-1.03,0.16-2,0.24-3.02c-0.22-0.01-0.38-0.04-0.54-0.04c-0.98-0.01-1.97-0.01-2.95-0.03
	c-0.47-0.01-1.22,0.5-1.34,0.99c-0.05,0.2,0.04,0.45,0.12,0.66c0.24,0.69,0.22,0.85-0.36,1.29c-0.35,0.26-0.58,0.53-0.53,1.02
	c0.05,0.5,0.49,0.79,0.92,0.52c0.09-0.06,0.12-0.24,0.13-0.37c0.03-0.52,0.24-0.96,0.56-1.41c0.42,0.58,0.28,1.15,0.12,1.78
	c0.74,0,1.42,0,2.11,0c0.01,0.06,0.03,0.11,0.05,0.16c-0.16,0.06-0.33,0.17-0.5,0.18c-0.44,0.02-0.89-0.02-1.33,0.01
	c-0.24,0.01-0.48,0.13-0.79,0.21c-0.33-0.37-0.98-0.38-1.41,0.07c-0.44,0.47-0.47,0.48-1.02,0.17c-0.47-0.26-0.93-0.51-1.49-0.48
	c-0.25,0.01-0.35,0.11-0.35,0.36c0,0.76-0.01,1.53-0.03,2.29c-0.01,0.29,0.09,0.42,0.39,0.42c0.54-0.01,1.07-0.01,1.61-0.01
	C23.15,42.62,23.16,42.67,23.17,42.72z M19.49,29.38c-0.12-0.04-0.15-0.06-0.19-0.06c-1.67,0-3.35-0.01-5.02,0.01
	c-0.12,0-0.32,0.15-0.35,0.27c-0.3,1.08-0.6,2.15-0.82,3.26c-0.16,0.8-0.09,0.81,0.64,1.11c0.17,0.07,0.32,0.18,0.49,0.24
	c0.24,0.09,0.49,0.23,0.74,0.23c1.49,0.02,2.99,0.01,4.48,0c0.12,0,0.22-0.03,0.41-0.05c-0.14-0.17-0.2-0.28-0.28-0.37
	c-0.87-0.97-1.28-2.04-0.61-3.33c0.09-0.18,0.16-0.37,0.23-0.55C19.31,29.89,19.39,29.65,19.49,29.38z M16.23,39.2
	c1.39,0,2.68-0.01,3.97,0.01c0.35,0.01,0.46-0.14,0.46-0.48c-0.01-1.21,0-2.42,0.01-3.64c0-0.3-0.14-0.35-0.39-0.35
	c-1.62,0-3.24-0.01-4.86-0.01c-0.07,0-0.14,0.05-0.26,0.11c0.47,0.39,0.89,0.73,1.31,1.08c0.74,0.61,0.74,0.61,0.41,1.54
	C16.67,38.01,16.47,38.56,16.23,39.2z M10.72,32c-0.02,0.14-0.04,0.2-0.03,0.28c0.01,0.51,0.06,1.02-0.5,1.29
	c-0.06,0.03-0.07,0.3-0.02,0.42c0.07,0.16,0.2,0.36,0.35,0.41c0.21,0.07,0.47,0.07,0.5-0.31c0.05-0.65,0.06-0.65,0.69-0.59
	c0.14,0.01,0.28,0.01,0.41,0.05c0.31,0.07,0.41-0.07,0.45-0.37c0.11-0.73,0.23-1.45,0.39-2.16c0.12-0.54,0.28-1.07,0.45-1.69
	c-0.85,0-1.62,0-2.39,0c-0.58,0-0.8,0.21-0.88,0.89c0.24,0.1,0.5,0.2,0.76,0.31c0.24,0.1,0.49,0.2,0.77,0.32
	c-0.5,0.56-0.5,0.56-0.01,1.01c0.02,0.02,0.05,0.03,0.06,0.06c0.05,0.13,0.08,0.25,0.13,0.37c-0.12,0.01-0.24,0.06-0.34,0.04
	C11.26,32.22,11.02,32.12,10.72,32z M29.76,34.38c-0.04-0.49-0.07-0.91-0.12-1.39c-0.6,0.4-0.78,0.32-0.94-0.31
	c-0.07-0.27-0.13-0.53-0.22-0.79c-0.14-0.42-0.51-0.54-0.86-0.54c-0.12,0-0.29,0.32-0.35,0.54c-0.11,0.36-0.31,0.52-0.65,0.54
	c-0.22,0.01-0.43,0.06-0.6,0.09c0.06,0.65,0.12,1.24,0.18,1.86C27.33,34.38,28.5,34.38,29.76,34.38z M21.22,34.79
	c-0.02,0.2-0.05,0.42-0.05,0.62c-0.01,1.11-0.01,2.22,0,3.33c0,0.49,0.1,0.56,0.65,0.35c-0.36-1-0.16-1.98,0.02-3
	C21.92,35.62,21.6,35.17,21.22,34.79z"/>
<g>
	<g>
		<path class="st0" d="M41.77,34.67c0,1.79-0.55,3.53-1.62,5.16c-1.03,1.56-2.5,2.97-4.37,4.17c-1.86,1.19-4.03,2.13-6.45,2.79
			c-2.5,0.68-5.14,1.02-7.87,1.02s-5.38-0.35-7.87-1.02c-2.41-0.66-4.58-1.6-6.45-2.79c-1.87-1.2-3.34-2.61-4.37-4.17
			c-1.08-1.63-1.62-3.37-1.62-5.16c0-1.79,0.55-3.53,1.62-5.16c1.03-1.56,2.5-2.97,4.37-4.17c0.37-0.23,0.74-0.46,1.13-0.67
			c-0.16,0.28-0.32,0.59-0.49,0.93c-3.76,2.29-6.1,5.51-6.1,9.07c0,6.76,8.44,12.3,18.99,12.57c0.3,0.11,0.53,0.16,0.63,0.15
			c0.05-0.01,0.18-0.06,0.36-0.14c10.82-0.06,19.58-5.68,19.58-12.58c0-3.91-2.82-7.41-7.24-9.72c-0.12-0.32-0.24-0.59-0.33-0.79
			c0.74,0.36,1.44,0.76,2.11,1.18c1.87,1.2,3.34,2.61,4.37,4.17C41.23,31.14,41.77,32.87,41.77,34.67z"/>
	</g>
</g>
<rect x="1.6" y="34.47" class="st0" width="4.59" height="0.25"/>
<rect x="3.6" y="28.59" class="st0" width="2.59" height="0.25"/>
<rect x="2.98" y="39.43" class="st0" width="5.65" height="0.25"/>
<rect x="6.38" y="42.83" class="st0" width="5.59" height="0.25"/>
<rect x="37.08" y="34.47" class="st0" width="4.59" height="0.25"/>
<rect x="35.16" y="28.93" class="st0" width="4.59" height="0.25"/>
<rect x="34.64" y="39.42" class="st0" width="5.65" height="0.25"/>
<rect x="28.82" y="42.83" class="st0" width="8.07" height="0.25"/>
<path class="st0" d="M17.71,46.28c-0.22-0.16-0.8-0.46-2.25-0.98c-2.64-0.95-5.15-3.95-5.02-3.83c1.94,2.04,5.55,3.76,7.43,4.57l0,0
	c0,0,0,0,0.01,0c0.05,0.02,0.37,0.17,0.8,0.37c0.09,0.04,0.18,0.08,0.26,0.12l-1.1-0.08C17.83,46.46,17.9,46.42,17.71,46.28z"/>
<path class="st0" d="M22.97,46.56l3.21-1.84l0.22,0.14c0,0-2,0.97-2.22,1.39c-0.22,0.42,2.83-0.79,4.22-2.05
	c1.38-1.26,3.24-3.86,3.24-3.86s-0.16-0.2,0.76-1.35c0.92-1.15,1.62-3.29,1.67-3.83s0.05-0.82,0.16-0.76s0.49,0.71,0.84,0.73
	c0.35,0.03,0.86,0.2,0.84,0.68c-0.03,0.48-0.2,0.52-0.2,0.52l-0.5-0.08l-0.57-0.73l-0.05,0.31l-0.14,1.24l0.46,0.37l0.27-0.08
	c0,0,0.24-0.71,0.27-0.68c0.03,0.03,0.62,0.51,0.68,0.56c0.05,0.06,0.34,0.05,0.21,0.4c-0.13,0.35-1.94,2.97-2.16,3.31
	s-0.46,0.54-0.46,0.54s0.11-0.73-0.24-1.09c-0.35-0.37-1-0.4-1.17-0.37c-0.16,0.03-2.03,2.8-3.43,4.12c-1.76,1.66-3.68,2.2-3.68,2.2
	l-2.33,0.47L22.97,46.56z"/>
<g>
	<g>
		<path class="st0" d="M18.88,46.26c0.45,0.2,0.97,0.42,1.42,0.59c-2.03-0.09-4-0.42-5.87-0.97c-2.15-0.64-4.08-1.56-5.74-2.73
			c-1.67-1.17-2.98-2.54-3.9-4.07c-0.96-1.6-1.44-3.29-1.44-5.03c0-1.75,0.49-3.45,1.44-5.03c0.49-0.81,1.08-1.57,1.79-2.29
			c-0.17,0.44-0.33,0.9-0.47,1.38c-1.41,1.77-2.21,3.79-2.21,5.95c0,5.84,5.89,10.74,13.73,11.96c0.33,0.05,0.66,0.09,0.99,0.13
			C18.7,46.18,18.78,46.22,18.88,46.26z"/>
		<path class="st0" d="M39.55,34.05c0,1.75-0.49,3.45-1.44,5.03c-0.92,1.53-2.23,2.9-3.9,4.07c-1.66,1.17-3.59,2.09-5.74,2.73
			c-2.08,0.62-4.28,0.95-6.54,1c0.32-0.16,0.73-0.37,1.19-0.63c8.9-0.59,15.88-5.84,15.88-12.2c0-2.96-1.51-5.68-4.02-7.8
			c-0.07-0.32-0.15-0.64-0.23-0.92c1.42,1.09,2.55,2.32,3.36,3.68C39.06,30.6,39.55,32.29,39.55,34.05z"/>
	</g>
</g>
</svg>
